<svg xmlns="http://www.w3.org/2000/svg" viewBox="0 0 500 500"><g id="freepik--background-simple--inject-87"><path d="M455.59,331.57c-20.14,40.62-55.86,82.72-99.33,90.82-65.67,12.23-80.58,66.85-192.61,46.7A210.74,210.74,0,0,1,116,454.77a180.08,180.08,0,0,1-21.8-11.4c-62-38-87.75-106.93-81.64-174.66,8-89.07,70-123.79,109.91-143.64s96.8-109.76,207.1-90.9a204.46,204.46,0,0,1,49,14.68c35.82,16,70.48,45.55,87.75,84.27q1.95,4.37,3.65,8.88C492.14,200.77,483.05,276.21,455.59,331.57Z" style="fill:#ff274b"></path><path d="M455.59,331.57c-20.14,40.62-55.86,82.72-99.33,90.82-65.67,12.23-80.58,66.85-192.61,46.7A210.74,210.74,0,0,1,116,454.77a180.08,180.08,0,0,1-21.8-11.4c-62-38-87.75-106.93-81.64-174.66,8-89.07,70-123.79,109.91-143.64s96.8-109.76,207.1-90.9a204.46,204.46,0,0,1,49,14.68c35.82,16,70.48,45.55,87.75,84.27q1.95,4.37,3.65,8.88C492.14,200.77,483.05,276.21,455.59,331.57Z" style="fill:#ff274b;opacity:0.1"></path></g></svg>
