<svg xmlns="http://www.w3.org/2000/svg" xmlns:xlink="http://www.w3.org/1999/xlink" viewBox="0 0 500 500"><defs><clipPath id="freepik--clip-path--inject-760"><path d="M254.49,188.55s-8,4.43-13-10.24S252,136,268.05,130.15s35.71-6.09,50.66,6.36,13.84,42.91,13.84,42.91,14.4-.83,22.7,16.88-7.2,32.67-17.72,32.39-16-10-17.16-18.54-20.48-29.9-30.17-32.39-16.61,6.36-24.36,8S254.49,188.55,254.49,188.55Z" style="fill:#263238;stroke:#263238;stroke-linecap:round;stroke-linejoin:round"></path></clipPath></defs><g id="freepik--background-simple--inject-760"><path d="M208.87,459.69s77.87,14.07,142.35-39.53S437.28,277.8,456.66,206.34,446.13,70.4,385.8,48.74,296.21,78.57,219.63,93.52s-99.25,7.31-155.36,61.62S15,314.66,78.9,382.75,208.87,459.69,208.87,459.69Z" style="fill:#C53F3F"></path><path d="M208.87,459.69s77.87,14.07,142.35-39.53S437.28,277.8,456.66,206.34,446.13,70.4,385.8,48.74,296.21,78.57,219.63,93.52s-99.25,7.31-155.36,61.62S15,314.66,78.9,382.75,208.87,459.69,208.87,459.69Z" style="fill:#fff;opacity:0.7000000000000001"></path></g></svg>
